<svg width="19" height="12" viewBox="0 0 19 12" fill="none" xmlns="http://www.w3.org/2000/svg">
<path d="M-2.09808e-05 11.3599V-0.000137329H7.63198V1.93586H2.20798V4.86386H6.71998V6.65586H2.20798V11.3599H-2.09808e-05ZM18.3395 8.43186C18.3395 9.07186 18.1741 9.61053 17.8435 10.0479C17.5128 10.4745 17.0648 10.7999 16.4995 11.0239C15.9448 11.2479 15.3368 11.3599 14.6755 11.3599H9.18748V-0.000137329H15.2675C15.8008 -0.000137329 16.2595 0.143863 16.6435 0.431863C17.0381 0.709196 17.3368 1.07186 17.5395 1.51986C17.7528 1.9572 17.8595 2.41586 17.8595 2.89586C17.8595 3.43986 17.7208 3.9572 17.4435 4.44786C17.1661 4.93853 16.7608 5.3012 16.2275 5.53586C16.8781 5.72786 17.3901 6.07453 17.7635 6.57586C18.1475 7.0772 18.3395 7.69586 18.3395 8.43186ZM16.1155 8.01586C16.1155 7.72786 16.0568 7.47186 15.9395 7.24786C15.8221 7.0132 15.6621 6.83186 15.4595 6.70386C15.2675 6.5652 15.0435 6.49586 14.7875 6.49586H11.3955V9.48786H14.6755C14.9421 9.48786 15.1821 9.42386 15.3955 9.29586C15.6195 9.1572 15.7955 8.97586 15.9235 8.75186C16.0515 8.52786 16.1155 8.28253 16.1155 8.01586ZM11.3955 1.88786V4.75186H14.3395C14.5848 4.75186 14.8088 4.6932 15.0115 4.57586C15.2141 4.45853 15.3741 4.2932 15.4915 4.07986C15.6195 3.86653 15.6835 3.61053 15.6835 3.31186C15.6835 3.02386 15.6248 2.7732 15.5075 2.55986C15.4008 2.34653 15.2515 2.1812 15.0595 2.06386C14.8781 1.94653 14.6701 1.88786 14.4355 1.88786H11.3955Z" fill="white"/>
</svg>
